<?xml version="1.0" encoding="iso-8859-1"?>
<!-- Generator: Adobe Illustrator 19.0.0, SVG Export Plug-In . SVG Version: 6.00 Build 0)  -->
<svg version="1.1" id="Layer_1" xmlns="http://www.w3.org/2000/svg" xmlns:xlink="http://www.w3.org/1999/xlink" x="0px" y="0px"
	 viewBox="0 0 512.166 512.166" style="enable-background:new 0 0 512.166 512.166;" xml:space="preserve">
<g transform="translate(1 1)">
	<g>
		<path style="fill:#fdd738;" d="M67.083,502.55c-0.853,0-2.56,0-3.413-0.853c-4.267-1.707-5.973-6.827-3.413-11.093l32.427-64.853
			L68.79,360.896c-0.853-2.56-0.853-5.973,1.707-8.533l42.667-51.2c3.413-3.413,8.533-4.267,11.947-0.853
			c3.413,3.413,4.267,8.533,0.853,11.947L86.71,360.043l23.893,64c0.853,2.56,0.853,4.267,0,6.827L76.47,499.136
			C73.056,500.843,70.496,502.55,67.083,502.55z"/>
		<path style="fill:#fdd738;" d="M7.35,340.416c-3.413,0-5.973-1.707-7.68-5.12c-1.707-4.267,0-9.387,3.413-11.093l15.36-7.68
			l33.28-49.493c0.853-1.707,3.413-3.413,5.12-3.413l41.813-8.533l16.213-7.68c4.267-1.707,9.387,0,11.093,3.413
			c1.707,4.267,0,9.387-3.413,11.093l-17.067,8.533c-0.853,0-1.707,0.853-2.56,0.853l-39.253,7.68l-32.427,48.64
			c-0.853,0.853-1.707,2.56-3.413,2.56l-17.067,8.533C9.91,340.416,9.056,340.416,7.35,340.416z"/>
		<path style="fill:#fdd738;" d="M169.483,186.816c-0.853,0-0.853,0-1.707,0l-42.667-8.533c-2.56-0.853-4.267-1.707-5.12-3.413
			l-32.427-48.64l-39.253-7.68c-2.56-0.853-4.267-1.707-5.12-3.413l-17.067-25.6c-2.56-4.267-1.707-9.387,1.707-11.947
			c4.267-2.56,9.387-1.707,11.947,1.707l15.36,23.04l39.253,7.68c2.56,0.853,4.267,1.707,5.12,3.413l32.427,48.64l39.253,7.68
			c4.267,0.853,7.68,5.12,6.827,10.24C177.163,184.256,173.75,186.816,169.483,186.816z"/>
		<path style="fill:#fdd738;" d="M442.55,502.55c-3.413,0-5.973-1.707-7.68-5.12l-34.133-68.267c-0.853-1.707-0.853-4.267,0-6.827
			l23.893-64l-39.253-47.787c-3.413-3.413-2.56-9.387,0.853-11.947c3.413-3.413,9.387-2.56,11.947,0.853l42.667,51.2
			c1.707,2.56,2.56,5.973,1.707,8.533l-23.893,64.853l32.427,64.853c1.707,4.267,0,9.387-3.413,11.093
			C445.11,502.55,444.256,502.55,442.55,502.55z"/>
		<path style="fill:#fdd738;" d="M502.283,340.416c-1.707,0-2.56,0-3.413-0.853l-17.067-8.533c-1.707-0.853-2.56-1.707-3.413-2.56
			l-32.427-48.64l-39.253-7.68c-0.853,0-1.707,0-2.56-0.853l-17.067-8.533c-4.267-1.707-5.973-6.827-3.413-11.093
			c1.707-4.267,6.827-5.973,11.093-3.413l16.213,7.68l41.813,8.533c2.56,0.853,4.267,1.707,5.12,3.413l33.28,49.493l15.36,7.68
			c4.267,1.707,5.973,6.827,3.413,11.093C508.256,338.71,505.696,340.416,502.283,340.416z"/>
		<path style="fill:#fdd738;" d="M340.15,186.816c-4.267,0-7.68-2.56-8.533-6.827c-0.853-4.267,1.707-9.387,6.827-10.24l39.253-7.68
			l32.427-48.64c0.853-1.707,3.413-3.413,5.12-3.413l39.253-7.68l15.36-23.04c2.56-4.267,7.68-5.12,11.947-2.56
			s5.12,7.68,2.56,11.947l-17.067,25.6c-0.853,1.707-3.413,3.413-5.12,3.413l-39.253,7.68l-32.427,48.64
			c-0.853,1.707-3.413,3.413-5.12,3.413l-42.667,8.533C341.003,186.816,341.003,186.816,340.15,186.816z"/>
		<path style="fill:#fdd738;" d="M330.763,272.15H178.87c-14.507,0-26.453-11.947-26.453-26.453v0.853
			c0-56.32,46.08-102.4,102.4-102.4s102.4,46.08,102.4,102.4v-0.853C357.216,260.203,345.27,272.15,330.763,272.15"/>
	</g>
	<g>
		<path style="fill:#FFA800;" d="M254.816,144.15c-4.267,0-8.533,0-12.8,0.853c50.347,5.973,89.6,48.64,89.6,100.693l0,0v0.853
			v-0.853c0,14.507-11.947,26.453-26.453,26.453h25.6c14.507,0,26.453-11.947,26.453-26.453
			C357.216,189.376,311.136,144.15,254.816,144.15"/>
		<path style="fill:#FFA800;" d="M357.216,245.696L357.216,245.696c0,0.853,0,0.853,0,0.853V245.696z"/>
	</g>
	<path style="fill:#fdd738;" d="M357.216,238.016v7.68c0,14.507-11.947,26.453-26.453,26.453H178.87
		c-14.507,0-26.453-11.947-26.453-26.453v-7.68h-34.133v93.867c0,75.093,61.44,136.533,136.533,136.533
		s136.533-61.44,136.533-136.533v-93.867H357.216z"/>
	<path style="fill:#FFA800;" d="M365.75,238.016v93.867c0,70.827-54.613,129.707-123.733,135.68c4.267,0,8.533,0.853,12.8,0.853
		c75.093,0,136.533-61.44,136.533-136.533v-93.867H365.75z"/>
	<g>
		<path style="fill:#FDCC00;" d="M304.31,156.95c6.827-11.093,10.24-24.747,10.24-38.4v-76.8c0-18.773-15.36-34.133-34.133-34.133
			V118.55c0,10.24-3.413,19.627-9.387,27.307C282.976,147.563,294.07,150.976,304.31,156.95"/>
		<path style="fill:#FDCC00;" d="M238.603,145.856c-5.973-7.68-9.387-17.067-9.387-27.307V7.616
			c-18.773,0-34.133,15.36-34.133,34.133v76.8c0,13.653,3.413,27.307,10.24,38.4C215.563,150.976,226.656,147.563,238.603,145.856"
			/>
	</g>
	<path style="fill:#fdd738;" d="M118.283,340.416H391.35"/>
	<path d="M330.763,280.683H178.87c-18.773,0-34.133-14.507-34.987-33.28v-0.853v-0.853c0,0,0,0,0-0.853
		c0.853-60.587,50.347-109.227,110.933-109.227s110.08,48.64,110.933,109.227l0,0v1.707v0.853
		C364.043,266.176,348.683,280.683,330.763,280.683z M254.816,152.683c-51.2,0-93.867,41.813-93.867,93.013
		c0,9.387,8.533,17.92,17.92,17.92h151.893c10.24,0,17.92-7.68,17.92-17.92C348.683,194.496,306.016,152.683,254.816,152.683z"/>
	<path d="M254.816,476.95c-80.213,0-145.067-64.853-145.067-145.067v-93.867c0-5.12,3.413-8.533,8.533-8.533h34.133
		c5.12,0,8.533,3.413,8.533,8.533v7.68c0,10.24,8.533,17.92,17.92,17.92h151.893c10.24,0,17.92-8.533,17.92-17.92v-7.68
		c0-5.12,3.413-8.533,8.533-8.533h34.133c5.12,0,8.533,3.413,8.533,8.533v93.867C399.883,412.096,335.03,476.95,254.816,476.95z
		 M126.816,246.55v85.333c0,70.827,57.173,128,128,128s128-57.173,128-128V246.55H365.75c-0.853,18.773-16.213,34.133-34.987,34.133
		H178.87c-18.773,0-34.987-15.36-34.987-34.133H126.816z"/>
	<path d="M304.31,165.483c-1.707,0-2.56,0-4.267-0.853c-9.387-5.12-19.627-8.533-30.72-10.24c-3.413-0.853-5.973-2.56-6.827-5.12
		c-0.853-2.56-0.853-5.973,1.707-8.533c5.12-5.973,7.68-13.653,7.68-21.333V7.616c0-5.12,3.413-8.533,8.533-8.533
		c23.893,0,42.667,18.773,42.667,42.667v76.8c0,15.36-4.267,29.867-11.093,42.667C310.283,163.776,306.87,165.483,304.31,165.483z
		 M284.683,139.883c5.973,1.707,11.093,3.413,16.213,5.973c3.413-8.533,5.973-17.92,5.973-27.307v-76.8
		c0-11.093-6.827-20.48-17.067-23.893V118.55C288.95,126.23,287.243,133.056,284.683,139.883z"/>
	<path d="M205.323,165.483c-2.56,0-5.973-1.707-7.68-4.267c-7.68-12.8-11.093-27.307-11.093-42.667v-76.8
		c0-23.893,18.773-42.667,42.667-42.667c5.12,0,8.533,3.413,8.533,8.533V118.55c0,7.68,2.56,15.36,7.68,21.333
		c1.707,2.56,2.56,5.973,1.707,8.533s-3.413,5.12-6.827,5.12c-11.093,1.707-21.333,5.12-30.72,10.24
		C207.883,164.63,207.03,165.483,205.323,165.483z M220.683,17.856c-10.24,3.413-17.067,12.8-17.067,23.893v76.8
		c0,9.387,1.707,18.773,5.973,27.307c5.12-2.56,10.24-4.267,16.213-5.973c-3.413-6.827-5.12-13.653-5.12-21.333V17.856z"/>
	<path d="M67.083,511.083c-0.853,0-2.56,0-3.413-0.853c-4.267-1.707-5.973-6.827-3.413-11.093l32.427-64.853L68.79,369.43
		c-0.853-2.56-0.853-5.973,1.707-8.533l42.667-51.2c3.413-3.413,8.533-4.267,11.947-0.853c3.413,3.413,4.267,8.533,0.853,11.947
		L86.71,368.576l23.893,64c0.853,2.56,0.853,4.267,0,6.827L76.47,507.67C73.056,509.376,70.496,511.083,67.083,511.083z"/>
	<path d="M7.35,348.95c-3.413,0-5.973-1.707-7.68-5.12c-1.707-4.267,0-9.387,3.413-11.093l15.36-7.68l33.28-49.493
		c0.853-1.707,3.413-3.413,5.12-3.413l41.813-8.533l16.213-7.68c4.267-1.707,9.387,0,11.093,3.413c1.707,4.267,0,9.387-3.413,11.093
		l-17.067,8.533c-0.853,0-1.707,0.853-2.56,0.853l-39.253,7.68l-32.427,48.64c-0.853,0.853-1.707,2.56-3.413,2.56l-17.067,8.533
		C9.91,348.95,9.056,348.95,7.35,348.95z"/>
	<path d="M169.483,195.35c-0.853,0-0.853,0-1.707,0l-42.667-8.533c-2.56-0.853-4.267-1.707-5.12-3.413l-32.427-48.64l-39.253-7.68
		c-2.56-0.853-4.267-1.707-5.12-3.413l-17.067-25.6c-2.56-4.267-1.707-9.387,1.707-11.947c4.267-2.56,9.387-1.707,11.947,1.707
		l15.36,23.04l39.253,7.68c2.56,0.853,4.267,1.707,5.12,3.413l32.427,48.64l39.253,7.68c4.267,0.853,7.68,5.12,6.827,10.24
		C177.163,192.79,173.75,195.35,169.483,195.35z"/>
	<path d="M442.55,511.083c-3.413,0-5.973-1.707-7.68-5.12l-34.133-68.267c-0.853-1.707-0.853-4.267,0-6.827l23.893-64
		l-39.253-47.787c-3.413-3.413-2.56-9.387,0.853-11.947c3.413-3.413,9.387-2.56,11.947,0.853l42.667,51.2
		c1.707,2.56,2.56,5.973,1.707,8.533l-23.893,64.853l32.427,64.853c1.707,4.267,0,9.387-3.413,11.093
		C445.11,511.083,444.256,511.083,442.55,511.083z"/>
	<path d="M502.283,348.95c-1.707,0-2.56,0-3.413-0.853l-17.067-8.533c-1.707-0.853-2.56-1.707-3.413-2.56l-32.427-48.64
		l-39.253-7.68c-0.853,0-1.707,0-2.56-0.853l-17.067-8.533c-4.267-1.707-5.973-6.827-3.413-11.093
		c1.707-4.267,6.827-5.973,11.093-3.413l16.213,7.68l41.813,8.533c2.56,0.853,4.267,1.707,5.12,3.413l33.28,49.493l15.36,7.68
		c4.267,1.707,5.973,6.827,3.413,11.093C508.256,347.243,505.696,348.95,502.283,348.95z"/>
	<path d="M340.15,195.35c-4.267,0-7.68-2.56-8.533-6.827c-0.853-4.267,1.707-9.387,6.827-10.24l39.253-7.68l32.427-48.64
		c0.853-1.707,3.413-3.413,5.12-3.413l39.253-7.68l15.36-23.04c2.56-4.267,7.68-5.12,11.947-2.56c4.267,2.56,5.12,7.68,2.56,11.947
		l-17.067,25.6c-0.853,1.707-3.413,3.413-5.12,3.413l-39.253,7.68l-32.427,48.64c-0.853,1.707-3.413,3.413-5.12,3.413l-42.667,8.533
		C341.003,195.35,341.003,195.35,340.15,195.35z"/>
	<path d="M254.816,477.803c-5.12,0-8.533-3.413-8.533-8.533V340.416c0-5.12,3.413-8.533,8.533-8.533c5.12,0,8.533,3.413,8.533,8.533
		V469.27C263.35,474.39,259.936,477.803,254.816,477.803z"/>
	<path d="M391.35,348.95H118.283c-5.12,0-8.533-3.413-8.533-8.533s3.413-8.533,8.533-8.533H391.35c5.12,0,8.533,3.413,8.533,8.533
		S396.47,348.95,391.35,348.95z"/>
</g>
<g>
</g>
<g>
</g>
<g>
</g>
<g>
</g>
<g>
</g>
<g>
</g>
<g>
</g>
<g>
</g>
<g>
</g>
<g>
</g>
<g>
</g>
<g>
</g>
<g>
</g>
<g>
</g>
<g>
</g>
</svg>
